REM DIRINDEX 1\2,1\3,1\4,1\5
REM DIRNAME folder01,folder02,folder03,folder04,folder05
TITLE ""
FILE "1800_068.mp3" MP3
  TRACK 01 AUDIO
    TITLE "2:cjc044_1693"
    INDEX 01 00:00:00
  TRACK 02 AUDIO
    TITLE "0:"
    INDEX 01 00:01:19
  TRACK 03 AUDIO
    TITLE "3:cjc044_1694"
    INDEX 01 00:01:71
  TRACK 04 AUDIO
    TITLE "0:"
    INDEX 01 00:03:33
  TRACK 05 AUDIO
    TITLE "4:cjc044_1695"
    INDEX 01 00:04:07
  TRACK 06 AUDIO
    TITLE "0:"
    INDEX 01 00:05:34
  TRACK 07 AUDIO
    TITLE "5:cjc044_1696"
    INDEX 01 00:06:16
  TRACK 08 AUDIO
    TITLE "0:"
    INDEX 01 00:10:04
  TRACK 09 AUDIO
    TITLE "2:cjc044_1697"
    INDEX 01 00:11:60
  TRACK 10 AUDIO
    TITLE "0:"
    INDEX 01 00:13:14
  TRACK 11 AUDIO
    TITLE "3:cjc044_1698"
    INDEX 01 00:13:63
  TRACK 12 AUDIO
    TITLE "0:"
    INDEX 01 00:14:62
  TRACK 13 AUDIO
    TITLE "4:cjc044_1699"
    INDEX 01 00:15:40
  TRACK 14 AUDIO
    TITLE "0:"
    INDEX 01 00:16:71
  TRACK 15 AUDIO
    TITLE "5:cjc044_1700"
    INDEX 01 00:17:49
  TRACK 16 AUDIO
    TITLE "0:"
    INDEX 01 00:22:13
  TRACK 17 AUDIO
    TITLE "2:cjc044_1701"
    INDEX 01 00:24:02
  TRACK 18 AUDIO
    TITLE "0:"
    INDEX 01 00:25:21
  TRACK 19 AUDIO
    TITLE "3:cjc044_1702"
    INDEX 01 00:26:01
  TRACK 20 AUDIO
    TITLE "0:"
    INDEX 01 00:27:16
  TRACK 21 AUDIO
    TITLE "4:cjc044_1703"
    INDEX 01 00:27:69
  TRACK 22 AUDIO
    TITLE "0:"
    INDEX 01 00:29:13
  TRACK 23 AUDIO
    TITLE "5:cjc044_1704"
    INDEX 01 00:29:60
  TRACK 24 AUDIO
    TITLE "0:"
    INDEX 01 00:32:37
  TRACK 25 AUDIO
    TITLE "2:cjc044_1705"
    INDEX 01 00:34:16
  TRACK 26 AUDIO
    TITLE "0:"
    INDEX 01 00:35:53
  TRACK 27 AUDIO
    TITLE "3:cjc044_1706"
    INDEX 01 00:36:36
  TRACK 28 AUDIO
    TITLE "0:"
    INDEX 01 00:37:63
  TRACK 29 AUDIO
    TITLE "4:cjc044_1707"
    INDEX 01 00:38:33
  TRACK 30 AUDIO
    TITLE "0:"
    INDEX 01 00:39:70
  TRACK 31 AUDIO
    TITLE "5:cjc044_1708"
    INDEX 01 00:40:52
  TRACK 32 AUDIO
    TITLE "0:"
    INDEX 01 00:44:44
  TRACK 33 AUDIO
    TITLE "2:cjc044_1709"
    INDEX 01 00:46:27
  TRACK 34 AUDIO
    TITLE "0:"
    INDEX 01 00:47:68
  TRACK 35 AUDIO
    TITLE "3:cjc044_1710"
    INDEX 01 00:48:46
  TRACK 36 AUDIO
    TITLE "0:"
    INDEX 01 00:49:69
  TRACK 37 AUDIO
    TITLE "4:cjc044_1711"
    INDEX 01 00:50:50
  TRACK 38 AUDIO
    TITLE "0:"
    INDEX 01 00:52:16
  TRACK 39 AUDIO
    TITLE "5:cjc044_1712"
    INDEX 01 00:52:71
  TRACK 40 AUDIO
    TITLE "0:"
    INDEX 01 00:57:03
  TRACK 41 AUDIO
    TITLE "2:cjc044_1713"
    INDEX 01 00:58:58
  TRACK 42 AUDIO
    TITLE "0:"
    INDEX 01 01:00:00
  TRACK 43 AUDIO
    TITLE "3:cjc044_1714"
    INDEX 01 01:00:60
  TRACK 44 AUDIO
    TITLE "0:"
    INDEX 01 01:01:54
  TRACK 45 AUDIO
    TITLE "4:cjc044_1715"
    INDEX 01 01:02:34
  TRACK 46 AUDIO
    TITLE "0:"
    INDEX 01 01:03:53
  TRACK 47 AUDIO
    TITLE "5:cjc044_1716"
    INDEX 01 01:04:23
  TRACK 48 AUDIO
    TITLE "0:"
    INDEX 01 01:06:51
  TRACK 49 AUDIO
    TITLE "2:cjc044_1717"
    INDEX 01 01:08:38
  TRACK 50 AUDIO
    TITLE "0:"
    INDEX 01 01:09:52
  TRACK 51 AUDIO
    TITLE "3:cjc044_1718"
    INDEX 01 01:10:33
  TRACK 52 AUDIO
    TITLE "0:"
    INDEX 01 01:11:64
  TRACK 53 AUDIO
    TITLE "4:cjc044_1719"
    INDEX 01 01:12:52
  TRACK 54 AUDIO
    TITLE "0:"
    INDEX 01 01:13:67
  TRACK 55 AUDIO
    TITLE "5:cjc044_1720"
    INDEX 01 01:14:47
  TRACK 56 AUDIO
    TITLE "0:"
    INDEX 01 01:17:10
  TRACK 57 AUDIO
    TITLE "2:cjc044_1721"
    INDEX 01 01:18:74
  TRACK 58 AUDIO
    TITLE "0:"
    INDEX 01 01:20:18
  TRACK 59 AUDIO
    TITLE "3:cjc044_1722"
    INDEX 01 01:21:02
  TRACK 60 AUDIO
    TITLE "0:"
    INDEX 01 01:22:03
  TRACK 61 AUDIO
    TITLE "4:cjc044_1723"
    INDEX 01 01:22:62
  TRACK 62 AUDIO
    TITLE "0:"
    INDEX 01 01:24:06
  TRACK 63 AUDIO
    TITLE "5:cjc044_1724"
    INDEX 01 01:24:67
  TRACK 64 AUDIO
    TITLE "0:"
    INDEX 01 01:28:47
